<svg xmlns="http://www.w3.org/2000/svg" xmlns:xlink="http://www.w3.org/1999/xlink" width="1364.293" height="795.916" viewBox="0 0 1364.293 795.916"><defs><filter id="a" x="167.428" y="115.539" width="736.211" height="468.623" filterUnits="userSpaceOnUse"><feOffset dx="2" dy="5" input="SourceAlpha"/><feGaussianBlur stdDeviation="26.5" result="b"/><feFlood flood-color="#fb4262"/><feComposite operator="in" in2="b"/><feComposite in="SourceGraphic"/></filter><filter id="c" x="121.212" y="81.766" width="736.211" height="468.623" filterUnits="userSpaceOnUse"><feOffset dx="2" dy="5" input="SourceAlpha"/><feGaussianBlur stdDeviation="26.5" result="d"/><feFlood flood-color="#fb4262"/><feComposite operator="in" in2="d"/><feComposite in="SourceGraphic"/></filter><filter id="e" x="74.656" y="55.103" width="738.33" height="462.439" filterUnits="userSpaceOnUse"><feOffset dx="2" dy="5" input="SourceAlpha"/><feGaussianBlur stdDeviation="26.5" result="f"/><feFlood flood-color="#fb4262"/><feComposite operator="in" in2="f"/><feComposite in="SourceGraphic"/></filter><filter id="g" x="33.773" y="19.553" width="738.33" height="462.439" filterUnits="userSpaceOnUse"><feOffset dx="2" dy="5" input="SourceAlpha"/><feGaussianBlur stdDeviation="26.5" result="h"/><feFlood flood-color="#fb4262"/><feComposite operator="in" in2="h"/><feComposite in="SourceGraphic"/></filter><filter id="i" x="0" y="0" width="738.33" height="462.439" filterUnits="userSpaceOnUse"><feOffset dx="2" dy="5" input="SourceAlpha"/><feGaussianBlur stdDeviation="26.5" result="j"/><feFlood flood-color="#fb4262"/><feComposite operator="in" in2="j"/><feComposite in="SourceGraphic"/></filter><filter id="k" x="211.866" y="117.327" width="802.254" height="498.83" filterUnits="userSpaceOnUse"><feOffset dx="2" dy="5" input="SourceAlpha"/><feGaussianBlur stdDeviation="26.5" result="l"/><feFlood flood-color="#fb4262"/><feComposite operator="in" in2="l"/><feComposite in="SourceGraphic"/></filter><filter id="m" x="221.5" y="142.212" width="853.056" height="516.834" filterUnits="userSpaceOnUse"><feOffset dx="2" dy="5" input="SourceAlpha"/><feGaussianBlur stdDeviation="26.5" result="n"/><feFlood flood-color="#fb4262"/><feComposite operator="in" in2="n"/><feComposite in="SourceGraphic"/></filter><filter id="o" x="274.826" y="161.765" width="853.056" height="516.834" filterUnits="userSpaceOnUse"><feOffset dx="2" dy="5" input="SourceAlpha"/><feGaussianBlur stdDeviation="26.5" result="p"/><feFlood flood-color="#fb4262"/><feComposite operator="in" in2="p"/><feComposite in="SourceGraphic"/></filter><filter id="q" x="329.93" y="177.763" width="853.056" height="516.834" filterUnits="userSpaceOnUse"><feOffset dx="2" dy="5" input="SourceAlpha"/><feGaussianBlur stdDeviation="26.5" result="r"/><feFlood flood-color="#fb4262"/><feComposite operator="in" in2="r"/><feComposite in="SourceGraphic"/></filter><filter id="s" x="385.033" y="197.315" width="853.056" height="516.834" filterUnits="userSpaceOnUse"><feOffset dx="2" dy="5" input="SourceAlpha"/><feGaussianBlur stdDeviation="26.5" result="t"/><feFlood flood-color="#fb4262"/><feComposite operator="in" in2="t"/><feComposite in="SourceGraphic"/></filter><filter id="u" x="433.026" y="229.311" width="853.056" height="516.834" filterUnits="userSpaceOnUse"><feOffset dx="2" dy="5" input="SourceAlpha"/><feGaussianBlur stdDeviation="26.5" result="v"/><feFlood flood-color="#fb4262"/><feComposite operator="in" in2="v"/><feComposite in="SourceGraphic"/></filter><filter id="w" x="468.577" y="254.196" width="853.056" height="516.834" filterUnits="userSpaceOnUse"><feOffset dx="2" dy="5" input="SourceAlpha"/><feGaussianBlur stdDeviation="26.5" result="x"/><feFlood flood-color="#fb4262"/><feComposite operator="in" in2="x"/><feComposite in="SourceGraphic"/></filter><filter id="y" x="511.237" y="279.082" width="853.056" height="516.834" filterUnits="userSpaceOnUse"><feOffset dx="2" dy="5" input="SourceAlpha"/><feGaussianBlur stdDeviation="26.5" result="z"/><feFlood flood-color="#fb4262"/><feComposite operator="in" in2="z"/><feComposite in="SourceGraphic"/></filter></defs><g transform="translate(266.18 -371.91)"><g transform="translate(-914 784)"><g transform="translate(732.214 -328.661)" opacity="0.22"><g transform="matrix(1, 0, 0, 1, -84.39, -83.43)" filter="url(#a)"><path d="M0,293.992c14.287-17.021,156.851,20.806,226.105-29.639S191.249,158.3,277.019,92.215,569.188,0,569.188,0" transform="translate(251.82 198.97)" fill="none" stroke="#fae47b" stroke-width="18"/></g><g transform="matrix(1, 0, 0, 1, -84.39, -83.43)" filter="url(#c)"><path d="M0,293.992c14.287-17.021,156.851,20.806,226.105-29.639S191.249,158.3,277.019,92.215,569.188,0,569.188,0" transform="translate(205.61 165.19)" fill="none" stroke="#fae47b" stroke-width="18"/></g><g transform="matrix(1, 0, 0, 1, -84.39, -83.43)" filter="url(#e)"><path d="M0,273.954c14.287-17.021,158.969,40.844,228.224-9.6S193.367,158.3,279.137,92.215,571.306,0,571.306,0" transform="translate(159.05 138.53)" fill="none" stroke="#fae47b" stroke-width="18"/></g><g transform="matrix(1, 0, 0, 1, -84.39, -83.43)" filter="url(#g)"><path d="M0,273.954c14.287-17.021,158.969,40.844,228.224-9.6S193.367,158.3,279.137,92.215,571.306,0,571.306,0" transform="translate(118.17 102.98)" fill="none" stroke="#fae47b" stroke-width="18"/></g><g transform="matrix(1, 0, 0, 1, -84.39, -83.43)" filter="url(#i)"><path d="M0,273.954c14.287-17.021,158.969,40.844,228.224-9.6S193.367,158.3,279.137,92.215,571.306,0,571.306,0" transform="translate(84.39 83.43)" fill="none" stroke="#fae47b" stroke-width="18"/></g><g transform="matrix(1, 0, 0, 1, -84.39, -83.43)" filter="url(#k)"><path d="M0,324.317c14.287-17.021,156.851,20.806,226.105-29.639s-34.857-106.05,50.913-172.138S634.53,0,634.53,0" transform="translate(296.26 200.64)" fill="none" stroke="#fae47b" stroke-width="18"/></g><g transform="matrix(1, 0, 0, 1, -84.39, -83.43)" filter="url(#m)"><path d="M0,343.236c14.287-17.021,207.653,1.886,276.907-48.558S242.05,188.628,327.82,122.54,685.332,0,685.332,0" transform="translate(305.89 225.52)" fill="none" stroke="#fae47b" stroke-width="18"/></g><g transform="matrix(1, 0, 0, 1, -84.39, -83.43)" filter="url(#o)"><path d="M0,343.236c14.287-17.021,207.653,1.886,276.907-48.558S242.05,188.628,327.82,122.54,685.332,0,685.332,0" transform="translate(359.22 245.08)" fill="none" stroke="#fae47b" stroke-width="18"/></g><g transform="matrix(1, 0, 0, 1, -84.39, -83.43)" filter="url(#q)"><path d="M0,343.236c14.287-17.021,207.653,1.886,276.907-48.558S242.05,188.628,327.82,122.54,685.332,0,685.332,0" transform="translate(414.32 261.07)" fill="none" stroke="#fae47b" stroke-width="18"/></g><g transform="matrix(1, 0, 0, 1, -84.39, -83.43)" filter="url(#s)"><path d="M0,343.236c14.287-17.021,207.653,1.886,276.907-48.558S242.05,188.628,327.82,122.54,685.332,0,685.332,0" transform="translate(469.43 280.63)" fill="none" stroke="#fae47b" stroke-width="18"/></g><g transform="matrix(1, 0, 0, 1, -84.39, -83.43)" filter="url(#u)"><path d="M0,343.236c14.287-17.021,207.653,1.886,276.907-48.558S242.05,188.628,327.82,122.54,685.332,0,685.332,0" transform="translate(517.42 312.62)" fill="none" stroke="#fae47b" stroke-width="18"/></g><g transform="matrix(1, 0, 0, 1, -84.39, -83.43)" filter="url(#w)"><path d="M0,343.236c14.287-17.021,207.653,1.886,276.907-48.558S242.05,188.628,327.82,122.54,685.332,0,685.332,0" transform="translate(552.97 337.51)" fill="none" stroke="#fae47b" stroke-width="18"/></g><g transform="matrix(1, 0, 0, 1, -84.39, -83.43)" filter="url(#y)"><path d="M0,343.236c14.287-17.021,207.653,1.886,276.907-48.558S242.05,188.628,327.82,122.54,685.332,0,685.332,0" transform="translate(595.63 362.39)" fill="none" stroke="#fae47b" stroke-width="18"/></g></g></g></g></svg>